<svg width="35" height="35" viewBox="0 0 35 35" fill="none" xmlns="http://www.w3.org/2000/svg">
<path fill-rule="evenodd" clip-rule="evenodd" d="M18 1.99952C26.8365 1.99952 33.9999 9.1629 33.9999 17.9995C33.9999 26.836 26.8365 33.9997 18 33.9997C9.16342 33.9997 1.99994 26.836 1.99994 17.9995C1.99994 9.1629 9.16342 1.99952 18 1.99952Z" fill="#BDD1DF"/>
<path fill-rule="evenodd" clip-rule="evenodd" d="M20.9786 10.9403H19.328C19.328 10.9403 16.0149 10.6925 16.0149 14.185C16.0149 14.9318 16.0149 15.9914 16.0149 15.9914H14.0151L14.0212 17.998H16.0139L15.9845 26.0117H19.014V18.0292L20.7522 17.998L21.3761 15.9914H18.9816V13.9265C18.9816 13.9265 18.957 13.0104 20.0306 13.0104H20.9687L20.9786 10.9403Z" fill="white"/>
</svg>
