<svg width="35" height="35" viewBox="0 0 35 35" fill="none" xmlns="http://www.w3.org/2000/svg">
<path fill-rule="evenodd" clip-rule="evenodd" d="M17.9999 1.99952C26.8365 1.99952 34 9.1629 34 17.9995C34 26.836 26.8365 33.9997 17.9999 33.9997C9.16338 33.9997 1.99997 26.836 1.99997 17.9995C1.99997 9.1629 9.16338 1.99952 17.9999 1.99952Z" fill="#BDD1DF"/>
<path fill-rule="evenodd" clip-rule="evenodd" d="M12.5675 12.6087C13.7642 12.6087 14.464 11.892 14.464 10.9183C14.4409 9.92073 13.7368 9.21393 12.5874 9.21393C11.4382 9.21393 10.6874 9.92073 10.6874 10.9183C10.6874 11.892 11.4419 12.6087 12.5675 12.6087ZM10.9957 13.9871V25.0101H14.0069V13.9871H10.9957ZM18.7015 13.9871H16.0152V24.9785H18.9919V18.3336C18.9919 18.023 19.0142 17.712 19.1033 17.4902C19.3476 16.869 19.8865 16.2257 20.8192 16.2257C22.0406 16.2257 23.0065 17.1796 23.0065 18.5774V24.9785H26.006V18.0956C26.006 14.9006 24.4708 13.6056 22.2502 13.6056C20.4291 13.6056 19.4674 14.3994 19.0233 15.1095L18.7015 13.9871Z" fill="white"/>
</svg>
