<svg width="118" height="38" viewBox="0 0 118 38" fill="none" xmlns="http://www.w3.org/2000/svg">
<path fill-rule="evenodd" clip-rule="evenodd" d="M32.6148 32.7789C27.8167 35.3228 23.439 36.798 17.762 36.9879C7.72436 37.3235 0.98288 31.3967 0.98288 21.0423C0.98288 8.92772 9.30908 0.57324 21.6818 0.709079C27.7026 0.7752 31.871 2.76008 33.7236 4.01724L30.3715 11.6484C28.8698 10.9229 26.048 10.4129 23.6667 10.4129C17.5573 10.4129 14.5748 14.3775 14.4043 19.5002C14.228 24.7933 17.499 28.2982 22.3438 28.763C27.1308 29.2221 30.5526 28.1214 32.646 27.2L34.517 13.9938H44.7646L42.9435 26.8252C42.7744 27.9685 43.4941 28.9 44.5526 28.9C45.5689 28.9 46.5433 27.9685 46.7124 26.8252L48.5334 13.9938H58.781L56.7909 28.2648C56.5365 30.0856 57.2116 31.2106 61.4461 29.3578L62.9679 33.8571C57.6747 36.349 54.4617 36.9879 52.3446 36.9879C49.1262 36.9879 47.2204 35.6749 46.5008 33.7697C44.1717 35.9294 41.7159 36.9879 38.921 36.9879C35.7395 36.9879 33.4515 35.3286 32.6148 32.7789ZM77.1579 16.1961L78.6823 5.14408H88.9298L85.6693 28.4341C85.458 30.0856 86.2136 31.3211 90.448 29.0278L92.1244 33.7914C90.448 34.7618 86.3019 37.0551 81.2234 36.9879C78.0898 36.9464 76.0993 35.5482 75.4216 33.473C73.6435 35.5482 71.484 36.9879 68.1808 36.9879C63.4378 36.9879 60.6858 32.5838 60.6858 27.0789C60.6858 19.3298 65.6397 13.4435 71.8224 13.4435C74.2783 13.4435 75.9297 14.502 77.1579 16.1961ZM76.777 24.5807C76.777 22.8021 75.8031 21.4047 74.2783 21.4047C72.2882 21.4047 70.7214 23.4373 70.7214 25.7666C70.7214 27.5444 71.6529 28.9422 73.2196 28.9422C75.1678 28.9422 76.777 26.91 76.777 24.5807ZM106.503 16.1961L106.799 13.9938H117.047L115.014 28.4341C114.803 30.0856 115.819 30.3819 117.386 30.0008L117.024 34.3862C114.84 36.1067 112.685 36.9879 110.568 36.9879C107.434 36.9879 105.444 35.5482 104.766 33.473C102.988 35.5908 100.744 36.9879 97.5255 36.9879C92.7824 36.9879 90.0303 32.5838 90.0303 27.0789C90.0303 19.4991 94.9844 13.4435 101.167 13.4435C103.623 13.4435 105.274 14.502 106.503 16.1961ZM106.122 24.5807C106.122 22.8021 105.148 21.4047 103.623 21.4047C101.633 21.4047 100.066 23.4373 100.066 25.7666C100.066 27.5444 100.998 28.9422 102.564 28.9422C104.513 28.9422 106.122 26.91 106.122 24.5807Z" fill="white"/>
</svg>
