<svg width="35" height="35" viewBox="0 0 35 35" fill="none" xmlns="http://www.w3.org/2000/svg">
<path fill-rule="evenodd" clip-rule="evenodd" d="M18 1.99952C26.8365 1.99952 33.9999 9.1629 33.9999 17.9995C33.9999 26.836 26.8365 33.9997 18 33.9997C9.16338 33.9997 1.99994 26.836 1.99994 17.9995C1.99994 9.1629 9.16338 1.99952 18 1.99952Z" fill="#BDD1DF"/>
<path fill-rule="evenodd" clip-rule="evenodd" d="M10.6087 14.178C11.0962 14.4482 16.8469 18.1885 17.098 18.3273C17.3495 18.4665 17.675 18.5337 18.0031 18.5337C18.3311 18.5337 18.6566 18.4665 18.9081 18.3273C19.1592 18.1885 24.9099 14.4482 25.3974 14.178C25.8853 13.9078 26.3469 13.0596 25.4507 13.0596H10.5553C9.65974 13.0596 10.1208 13.9078 10.6087 14.178ZM25.604 16.2378C25.05 16.5363 19.2472 20.205 18.9081 20.3875C18.5686 20.5703 18.3311 20.5938 18.0031 20.5938C17.675 20.5938 17.4375 20.5703 17.098 20.3875C16.7589 20.205 10.9564 16.5363 10.4021 16.2378C10.0122 16.0281 10.0155 16.2741 10.0155 16.464C10.0155 16.6538 10.0155 24.0195 10.0155 24.0195C10.0155 24.4513 10.5732 25.0072 11.006 25.0072H25.0002C25.4329 25.0072 25.9906 24.4513 25.9906 24.0195C25.9906 24.0195 25.9906 16.6538 25.9906 16.464C25.9906 16.2741 25.9943 16.0281 25.604 16.2378Z" fill="white"/>
</svg>
