<svg width="35" height="35" viewBox="0 0 35 35" fill="none" xmlns="http://www.w3.org/2000/svg">
<path fill-rule="evenodd" clip-rule="evenodd" d="M17.9999 1.99952C26.8365 1.99952 34 9.1629 34 17.9995C34 26.836 26.8365 33.9997 17.9999 33.9997C9.16342 33.9997 2.00001 26.836 2.00001 17.9995C2.00001 9.1629 9.16342 1.99952 17.9999 1.99952Z" fill="#BDD1DF"/>
<path fill-rule="evenodd" clip-rule="evenodd" d="M26.9844 13.6555C26.3597 13.9368 25.6889 14.127 24.9847 14.2121C25.7037 13.7745 26.2556 13.0817 26.5156 12.2563C25.8427 12.6616 25.0977 12.9557 24.3049 13.1143C23.6697 12.427 22.7648 11.9981 21.7637 11.9981C19.8411 11.9981 18.2823 13.5806 18.2823 15.5328C18.2823 15.8101 18.313 16.0799 18.3724 16.3384C15.4793 16.1912 12.9133 14.7838 11.1967 12.6447C10.897 13.1672 10.7252 13.7741 10.7252 14.4222C10.7252 15.6485 11.3397 16.7302 12.2738 17.3643C11.7037 17.3463 11.1665 17.1873 10.697 16.9226C10.6967 16.9373 10.6967 16.9516 10.6967 16.9666C10.6967 18.6798 11.897 20.1084 13.4894 20.433C13.1976 20.5142 12.8899 20.5571 12.5721 20.5571C12.3481 20.5571 12.1301 20.5351 11.9172 20.4936C12.3604 21.898 13.6465 22.9206 15.1695 22.9488C13.9778 23.8972 12.4771 24.4623 10.8459 24.4623C10.5649 24.4623 10.2879 24.4454 10.0156 24.412C11.5559 25.4158 13.3856 26.0011 15.3522 26.0011C21.7555 26.0011 25.2574 20.614 25.2574 15.943C25.2574 15.7899 25.2541 15.6371 25.2472 15.4851C25.9274 14.9872 26.5175 14.3645 26.9844 13.6555Z" fill="white"/>
</svg>
